# Blender v3.6.2 OBJ File: 'cube-ani.blend'
# www.blender.org
mtllib cube-ani_000017.mtl
o Cube
v 0.632983 -0.669846 -0.583043
v -0.626260 -0.676337 -0.582810
v 0.632750 -0.579673 0.672984
v -0.626492 -0.586164 0.673216
v 0.626492 0.586164 -0.673216
v -0.632750 0.579673 -0.672984
v 0.626260 0.676337 0.582810
v -0.632983 0.669846 0.583043
vt 0.875000 0.500000
vt 0.625000 0.750000
vt 0.625000 0.500000
vt 0.375000 1.000000
vt 0.375000 0.750000
vt 0.625000 0.000000
vt 0.375000 0.250000
vt 0.375000 0.000000
vt 0.375000 0.500000
vt 0.125000 0.750000
vt 0.125000 0.500000
vt 0.625000 0.250000
vt 0.875000 0.750000
vt 0.625000 1.000000
vn 1.0000 0.0052 -0.0002
vn -0.0002 0.0716 0.9974
vn -0.0052 0.9974 -0.0716
vn -1.0000 -0.0052 0.0002
vn 0.0052 -0.9974 0.0716
vn 0.0002 -0.0716 -0.9974
usemtl Material
s off
f 5/1/1 3/2/1 1/3/1
f 3/2/2 8/4/2 4/5/2
f 7/6/3 6/7/3 8/8/3
f 2/9/4 8/10/4 6/11/4
f 1/3/5 4/5/5 2/9/5
f 5/12/6 2/9/6 6/7/6
f 5/1/1 7/13/1 3/2/1
f 3/2/2 7/14/2 8/4/2
f 7/6/3 5/12/3 6/7/3
f 2/9/4 4/5/4 8/10/4
f 1/3/5 3/2/5 4/5/5
f 5/12/6 1/3/6 2/9/6
