# Blender v3.6.2 OBJ File: 'cube-ani.blend'
# www.blender.org
mtllib cube-ani_000018.mtl
o Cube
v 0.642658 -0.691546 -0.445904
v -0.560675 -0.764667 -0.437041
v 0.633795 -0.403786 0.724801
v -0.569538 -0.476906 0.733664
v 0.569538 0.476906 -0.733664
v -0.633795 0.403786 -0.724801
v 0.560675 0.764667 0.437041
v -0.642658 0.691546 0.445904
vt 0.875000 0.500000
vt 0.625000 0.750000
vt 0.625000 0.500000
vt 0.375000 1.000000
vt 0.375000 0.750000
vt 0.625000 0.000000
vt 0.375000 0.250000
vt 0.375000 0.000000
vt 0.375000 0.500000
vt 0.125000 0.750000
vt 0.125000 0.500000
vt 0.625000 0.250000
vt 0.875000 0.750000
vt 0.625000 1.000000
vn 0.9981 0.0607 -0.0074
vn -0.0074 0.2387 0.9711
vn -0.0607 0.9692 -0.2387
vn -0.9981 -0.0607 0.0074
vn 0.0607 -0.9692 0.2387
vn 0.0074 -0.2387 -0.9711
usemtl Material
s off
f 5/1/1 3/2/1 1/3/1
f 3/2/2 8/4/2 4/5/2
f 7/6/3 6/7/3 8/8/3
f 2/9/4 8/10/4 6/11/4
f 1/3/5 4/5/5 2/9/5
f 5/12/6 2/9/6 6/7/6
f 5/1/1 7/13/1 3/2/1
f 3/2/2 7/14/2 8/4/2
f 7/6/3 5/12/3 6/7/3
f 2/9/4 4/5/4 8/10/4
f 1/3/5 3/2/5 4/5/5
f 5/12/6 1/3/6 2/9/6
