# Blender v3.6.2 OBJ File: 'cube-ani.blend'
# www.blender.org
mtllib cube-ani_000034.mtl
o Cube
v 0.731466 0.605836 0.597191
v -0.552370 0.600003 0.770454
v 0.558203 0.692565 -0.683725
v -0.725633 0.686732 -0.510462
v 0.725633 -0.686732 0.510462
v -0.558203 -0.692565 0.683725
v 0.552370 -0.600003 -0.770454
v -0.731466 -0.605836 -0.597191
vt 0.875000 0.500000
vt 0.625000 0.750000
vt 0.625000 0.500000
vt 0.375000 1.000000
vt 0.375000 0.750000
vt 0.625000 0.000000
vt 0.375000 0.250000
vt 0.375000 0.000000
vt 0.375000 0.500000
vt 0.125000 0.750000
vt 0.125000 0.500000
vt 0.625000 0.250000
vt 0.875000 0.750000
vt 0.625000 1.000000
vn 0.9910 0.0045 -0.1337
vn -0.1337 0.0669 -0.9888
vn -0.0045 -0.9977 -0.0669
vn -0.9910 -0.0045 0.1337
vn 0.0045 0.9977 0.0669
vn 0.1337 -0.0669 0.9888
usemtl Material
s off
f 5/1/1 3/2/1 1/3/1
f 3/2/2 8/4/2 4/5/2
f 7/6/3 6/7/3 8/8/3
f 2/9/4 8/10/4 6/11/4
f 1/3/5 4/5/5 2/9/5
f 5/12/6 2/9/6 6/7/6
f 5/1/1 7/13/1 3/2/1
f 3/2/2 7/14/2 8/4/2
f 7/6/3 5/12/3 6/7/3
f 2/9/4 4/5/4 8/10/4
f 1/3/5 3/2/5 4/5/5
f 5/12/6 1/3/6 2/9/6
