# Blender v3.6.2 OBJ File: 'cube-ani.blend'
# www.blender.org
mtllib cube-ani_000016.mtl
o Cube
v 0.664403 -0.582980 -0.719998
v -0.651938 -0.596098 -0.720651
v 0.665056 -0.713733 0.589899
v -0.651285 -0.726851 0.589245
v 0.651285 0.726851 -0.589245
v -0.665056 0.713733 -0.589899
v 0.651938 0.596098 0.720651
v -0.664403 0.582980 0.719998
vt 0.875000 0.500000
vt 0.625000 0.750000
vt 0.625000 0.500000
vt 0.375000 1.000000
vt 0.375000 0.750000
vt 0.625000 0.000000
vt 0.375000 0.250000
vt 0.375000 0.000000
vt 0.375000 0.500000
vt 0.125000 0.750000
vt 0.125000 0.500000
vt 0.625000 0.250000
vt 0.875000 0.750000
vt 0.625000 1.000000
vn 1.0000 0.0100 0.0005
vn 0.0005 -0.0993 0.9951
vn -0.0100 0.9950 0.0993
vn -1.0000 -0.0100 -0.0005
vn 0.0100 -0.9950 -0.0993
vn -0.0005 0.0993 -0.9951
usemtl Material
s off
f 5/1/1 3/2/1 1/3/1
f 3/2/2 8/4/2 4/5/2
f 7/6/3 6/7/3 8/8/3
f 2/9/4 8/10/4 6/11/4
f 1/3/5 4/5/5 2/9/5
f 5/12/6 2/9/6 6/7/6
f 5/1/1 7/13/1 3/2/1
f 3/2/2 7/14/2 8/4/2
f 7/6/3 5/12/3 6/7/3
f 2/9/4 4/5/4 8/10/4
f 1/3/5 3/2/5 4/5/5
f 5/12/6 1/3/6 2/9/6
